<svg xmlns="http://www.w3.org/2000/svg" viewBox="0 0 120 120">
  <defs>
    <linearGradient id="g" x1="0" y1="0" x2="1" y2="1">
      <stop offset="0" stop-color="#e8d5a3"/>
      <stop offset="0.5" stop-color="#c9a95c"/>
      <stop offset="1" stop-color="#a8842e"/>
    </linearGradient>
  </defs>
  <g fill="none" stroke="url(#g)" stroke-width="3" stroke-linecap="round" stroke-linejoin="round">
    <!-- compass ring -->
    <circle cx="60" cy="66" r="34" stroke-dasharray="6 5" stroke-width="2"/>
    <!-- compass points -->
    <path d="M60 24 l5 12 -5 -4 -5 4 z" fill="url(#g)" stroke="none"/>
    <path d="M60 108 l5 -12 -5 4 -5 -4 z" fill="url(#g)" stroke="none"/>
    <path d="M18 66 l12 -5 -4 5 4 5 z" fill="url(#g)" stroke="none"/>
    <path d="M102 66 l-12 -5 4 5 -4 5 z" fill="url(#g)" stroke="none"/>
    <!-- arrow to NE -->
    <path d="M78 48 L94 32 M94 32 l-9 2 M94 32 l-2 9" stroke-width="3.5"/>
    <!-- oryx: long swept horns -->
    <path d="M57 46 C50 34 47 24 49 14 M63 46 C58 33 56 23 59 12" stroke-width="3.5"/>
    <!-- head + neck + body -->
    <path d="M56 46 c-3 2 -5 6 -4 10 l3 6 c-6 2 -10 6 -11 12 c-1 7 4 13 11 14 l14 1 c7 0 12 -5 12 -11 c0 -5 -3 -9 -8 -11 l-6 -2 3 -7 c1 -4 -1 -9 -5 -11 c-3 -2 -7 -2 -9 -1 z" fill="url(#g)" stroke="none"/>
    <!-- legs -->
    <path d="M48 86 l-2 12 M58 88 l0 12 M68 88 l1 12 M76 84 l4 11" stroke-width="3"/>
  </g>
</svg>
