<svg xmlns="http://www.w3.org/2000/svg" viewBox="0 0 512 512">
  <defs>
    <linearGradient id="au" x1="0.15" y1="0" x2="0.85" y2="1">
      <stop offset="0" stop-color="#f0dc9f"/>
      <stop offset="0.5" stop-color="#d2ac5c"/>
      <stop offset="1" stop-color="#9a7830"/>
    </linearGradient>
  </defs>
  <g fill="url(#au)">
    <!-- القرنان الطويلان -->
    <path d="M 346 142 C 312 102 272 62 208 24 L 216 12 C 282 50 324 94 362 134 Z"/>
    <path d="M 368 148 C 342 104 306 62 252 22 L 260 10 C 318 52 354 100 382 142 Z"/>
    <!-- الأذن -->
    <path d="M 346 158 L 314 142 L 338 170 Z"/>
    <!-- الرأس -->
    <path d="M 350 142 L 392 154 C 404 162 410 174 407 186 L 400 194 L 368 186 L 344 166 Z"/>
    <!-- الرقبة -->
    <path d="M 306 262 L 344 148 L 376 160 L 348 272 Z"/>
    <!-- الجسم -->
    <path d="M 340 268 C 344 240 330 228 300 224 C 260 216 200 218 172 230 C 148 240 142 262 150 282 C 158 298 190 308 240 310 C 280 312 320 306 336 292 Z"/>
    <!-- الأرجل الأمامية -->
    <path d="M 298 298 L 312 300 L 306 424 L 293 424 Z"/>
    <path d="M 324 294 L 338 296 L 334 424 L 321 424 Z"/>
    <!-- الأرجل الخلفية -->
    <path d="M 166 284 L 196 290 L 188 340 L 194 424 L 180 424 L 177 344 L 156 314 Z"/>
    <path d="M 206 296 L 221 298 L 216 424 L 203 424 Z"/>
    <!-- الذيل -->
    <path d="M 160 246 C 142 270 132 300 134 328 l 11 1 C 143 302 152 274 170 252 Z"/>
    <path d="M 134 326 c -8 5 -11 16 -4 24 c 8 7 18 1 18 -10 c 0 -7 -7 -13 -14 -14 z"/>
  </g>
  <!-- خط الأرض -->
  <path d="M 118 444 H 396" stroke="#c9a95c" stroke-width="7" stroke-linecap="round" fill="none"/>
</svg>
