<svg xmlns="http://www.w3.org/2000/svg" viewBox="0 0 120 120">
  <defs>
    <linearGradient id="g" x1="0" y1="0" x2="1" y2="1">
      <stop offset="0" stop-color="#eddcae"/>
      <stop offset="0.5" stop-color="#c9a95c"/>
      <stop offset="1" stop-color="#a8842e"/>
    </linearGradient>
  </defs>
  <!-- حلقة البوصلة -->
  <circle cx="60" cy="64" r="41" fill="none" stroke="url(#g)" stroke-width="2" stroke-dasharray="5 6" stroke-linecap="round"/>
  <g fill="url(#g)">
    <path d="M60 17 l4 9 -4 -3 -4 3 z"/>
    <path d="M60 111 l4 -9 -4 3 -4 -3 z"/>
    <path d="M13 64 l9 -4 -3 4 3 4 z"/>
    <path d="M107 64 l-9 -4 3 4 -3 4 z"/>
  </g>
  <!-- سهم البوصلة نحو الشمال الشرقي -->
  <g stroke="url(#g)" stroke-width="3.5" stroke-linecap="round" fill="none">
    <path d="M88 36 L103 21"/>
    <path d="M94 21.5 L103 21 L102.5 30"/>
  </g>
  <!-- المها العربي -->
  <g fill="url(#g)">
    <!-- الجسم -->
    <ellipse cx="66" cy="66" rx="20" ry="10.5"/>
    <!-- الرقبة والرأس -->
    <path d="M50 64 L43 45 L52 42 L58 62 Z"/>
    <path d="M43.5 45.5 L35 50 L37.5 55 L46 51 Z"/>
    <!-- الذيل -->
    <path d="M85 62 q4 6 2.5 13 l-2.2 -0.6 q1 -6 -2.3 -10.5 z"/>
  </g>
  <g stroke="url(#g)" stroke-linecap="round" fill="none">
    <!-- القرون الطويلة -->
    <path d="M45 42 C 48 32 52 22 60 13" stroke-width="3.2"/>
    <path d="M50 41 C 53 32 57 24 65 16" stroke-width="3.2"/>
    <!-- الأذن -->
    <path d="M52 44 l5 -3" stroke-width="2.4"/>
    <!-- الأرجل -->
    <path d="M52 74 L50 93" stroke-width="3.6"/>
    <path d="M60 76 L60 94" stroke-width="3.6"/>
    <path d="M72 76 L73 94" stroke-width="3.6"/>
    <path d="M80 73 L84 92" stroke-width="3.6"/>
  </g>
</svg>
