<svg xmlns="http://www.w3.org/2000/svg" viewBox="0 0 512 512">
  <defs>
    <linearGradient id="au" x1="0.1" y1="0" x2="0.9" y2="1">
      <stop offset="0" stop-color="#f3dfa0"/>
      <stop offset="0.45" stop-color="#d4af5f"/>
      <stop offset="1" stop-color="#9a7830"/>
    </linearGradient>
  </defs>
  <g transform="translate(39,0)">

  <!-- حلقة البوصلة -->
  <g fill="none" stroke="url(#au)" stroke-width="17" stroke-linecap="round">
    <path d="M 253 187 A 110 110 0 0 0 109 318"/>
    <path d="M 160 385 A 110 110 0 0 0 315 337"/>
  </g>

  <g fill="url(#au)">
    <!-- رؤوس البوصلة -->
    <path d="M 211 180 L 188 130 L 181 186 Z"/>
    <path d="M 106 275 L 42 290 L 106 305 Z"/>
    <path d="M 256 392 L 296 430 L 283 377 Z"/>
    <!-- رأس السهم -->
    <path d="M 368 138 L 352 185 L 344 162 L 321 154 Z"/>
    <!-- ذيل السهم -->
    
  </g>

  <!-- عمود السهم وريشه -->
  <g fill="none" stroke="url(#au)" stroke-linecap="round">
    <path d="M 88 418 L 192 313" stroke-width="14"/>
    <path d="M 322 184 L 338 168" stroke-width="13"/>
    <path d="M 115 357 L 129 411" stroke-width="13"/>
    <path d="M 141 331 L 155 385" stroke-width="13"/>
  </g>

  <g fill="url(#au)">
    <!-- القرنان -->
    <path d="M 300 242 C 262 180 224 115 168 55 L 180 46 C 238 110 276 175 316 232 Z"/>
    <path d="M 334 236 C 306 168 278 105 240 50 L 252 43 C 292 103 320 168 348 228 Z"/>
    <!-- الأذن (شقّان) -->
    <path d="M 310 262 L 252 278 L 264 293 L 312 279 Z"/>
    <path d="M 308 286 L 260 302 L 270 313 L 310 299 Z"/>
    <!-- الرقبة والصدر -->
    <path d="M 348 306 C 344 358 322 410 276 452 C 304 405 314 356 308 310 C 320 301 336 301 348 306 Z"/>
    <path d="M 370 316 C 366 378 340 436 292 472 C 330 420 344 368 348 318 Z"/>
  </g>

  <!-- رأس المها: سلويت بفتحتي العين والأنف -->
  <path fill="url(#au)" fill-rule="evenodd" d="
    M 316 228
    C 334 240 352 256 366 274
    C 376 286 384 296 387 305
    C 389 314 384 320 376 320
    C 370 320 364 316 360 311
    C 354 318 344 318 338 312
    C 330 304 320 300 310 296
    C 302 292 298 284 298 274
    C 300 258 306 242 316 228
    Z
    M 336 262 C 344 255 355 257 359 266 C 352 272 341 270 336 262 Z
    M 374 300 a 4.5 4.5 0 1 0 0.1 0 Z"/>
  </g>
</svg>
