<svg xmlns="http://www.w3.org/2000/svg" viewBox="0 0 800 500" preserveAspectRatio="xMidYMid slice">
  <defs>
    <linearGradient id="sky" x1="0" y1="0" x2="0" y2="1">
      <stop offset="0" stop-color="#2b2118"/><stop offset="0.35" stop-color="#8a5a2b"/>
      <stop offset="0.62" stop-color="#e0913f"/><stop offset="0.8" stop-color="#f6c46a"/>
    </linearGradient>
    <linearGradient id="d1" x1="0" y1="0" x2="0" y2="1"><stop offset="0" stop-color="#c98d3f"/><stop offset="1" stop-color="#8a5a26"/></linearGradient>
    <linearGradient id="d2" x1="0" y1="0" x2="0" y2="1"><stop offset="0" stop-color="#b3762f"/><stop offset="1" stop-color="#6e4520"/></linearGradient>
    <radialGradient id="sun" cx="0.5" cy="0.5" r="0.5"><stop offset="0" stop-color="#fff3cf"/><stop offset="0.6" stop-color="#ffd98a"/><stop offset="1" stop-color="#ffd98a" stop-opacity="0"/></radialGradient>
    <g id="oryx">
      <g fill="#3a2a17">
        <ellipse cx="14" cy="14" rx="8.5" ry="4.6"/>
        <path d="M7.5 13 L4.6 5.2 L8.4 4 L11 12 Z"/>
        <path d="M4.8 5.4 L1.4 7.4 L2.6 9.6 L6 7.8 Z"/>
        <path d="M22 12.4 q1.8 2.6 1.2 5.6 l-1 -0.3 q0.5 -2.7 -1 -4.6 z"/>
      </g>
      <g stroke="#3a2a17" stroke-linecap="round" fill="none">
        <path d="M5.6 4 C 6.8 0 8.4 -3.6 11.6 -7" stroke-width="1.2"/>
        <path d="M7.6 3.6 C 8.8 0 10.4 -3 13.4 -6" stroke-width="1.2"/>
        <path d="M8.6 17.6 L7.6 26" stroke-width="1.5"/>
        <path d="M12 18.4 L12 26.4" stroke-width="1.5"/>
        <path d="M16.6 18.4 L17 26.4" stroke-width="1.5"/>
        <path d="M20 17 L21.6 25.6" stroke-width="1.5"/>
      </g>
    </g>
  </defs>
  <rect width="800" height="500" fill="url(#sky)"/>
  <circle cx="400" cy="235" r="110" fill="url(#sun)"/>
  <circle cx="400" cy="235" r="46" fill="#fff0c4"/>
  <path d="M0 300 Q 200 240 420 290 T 800 280 V500 H0 Z" fill="url(#d2)" opacity="0.9"/>
  <path d="M0 360 Q 260 300 520 355 T 800 340 V500 H0 Z" fill="url(#d1)"/>
  <path d="M0 430 Q 300 385 800 425 V500 H0 Z" fill="#5d3a1c"/>
  <use href="#oryx" transform="translate(300 330) scale(1.7)"/>
  <use href="#oryx" transform="translate(370 338) scale(1.55)"/>
  <use href="#oryx" transform="translate(430 332) scale(1.5)"/>
  <use href="#oryx" transform="translate(490 340) scale(1.65)"/>
  <use href="#oryx" transform="translate(560 335) scale(1.45)"/>
</svg>
