<svg xmlns="http://www.w3.org/2000/svg" viewBox="0 0 800 500" preserveAspectRatio="xMidYMid slice">
  <defs>
    <linearGradient id="sky" x1="0" y1="0" x2="0" y2="1">
      <stop offset="0" stop-color="#2b2118"/><stop offset="0.35" stop-color="#8a5a2b"/>
      <stop offset="0.62" stop-color="#e0913f"/><stop offset="0.8" stop-color="#f6c46a"/>
    </linearGradient>
    <linearGradient id="d1" x1="0" y1="0" x2="0" y2="1"><stop offset="0" stop-color="#c98d3f"/><stop offset="1" stop-color="#8a5a26"/></linearGradient>
    <linearGradient id="d2" x1="0" y1="0" x2="0" y2="1"><stop offset="0" stop-color="#b3762f"/><stop offset="1" stop-color="#6e4520"/></linearGradient>
    <radialGradient id="sun" cx="0.5" cy="0.5" r="0.5"><stop offset="0" stop-color="#fff3cf"/><stop offset="0.6" stop-color="#ffd98a"/><stop offset="1" stop-color="#ffd98a" stop-opacity="0"/></radialGradient>
    <g id="oryx" fill="#3a2a17">
      <path d="M9 0 C6 -6 5 -11 6 -15 l1.4 0.4 C6.6 -10 8 -5 10.6 -0.6 Z"/>
      <path d="M13 0 C10.5 -5.5 10 -10 11.4 -14.6 l1.4 0.4 C11.6 -9.6 12.6 -5 15 -0.6 Z"/>
      <path d="M8 0 c-1.6 1.2 -2 3 -1.2 4.6 l1.6 2.6 c-3 1 -5 3 -5.4 5.8 c-0.4 3.4 2 6 5.4 6.4 l7.4 0.6 c3.4 0.2 6 -2.2 6 -5.4 c0 -2.6 -1.6 -4.6 -4 -5.4 l-3 -1 1.4 -3.6 c0.6 -2 -0.4 -4.4 -2.4 -5.4 c-1.6 -0.8 -3.4 -0.6 -4.4 0.8 z"/>
      <path d="M4.4 19 l-1.4 8 1.6 0 1.6 -7.6 z M9.6 20.4 l-0.2 7.6 1.6 0 0.6 -7.4 z M14.8 20.6 l0.6 7.4 1.6 0 0.2 -7.6 z M19.6 18.6 l2.4 8.4 1.6 0 -2 -8.6 z"/>
    </g>
  </defs>
  <rect width="800" height="500" fill="url(#sky)"/>
  <circle cx="400" cy="235" r="110" fill="url(#sun)"/>
  <circle cx="400" cy="235" r="46" fill="#fff0c4"/>
  <path d="M0 300 Q 200 240 420 290 T 800 280 V500 H0 Z" fill="url(#d2)" opacity="0.9"/>
  <path d="M0 360 Q 260 300 520 355 T 800 340 V500 H0 Z" fill="url(#d1)"/>
  <path d="M0 430 Q 300 385 800 425 V500 H0 Z" fill="#5d3a1c"/>
  <use href="#oryx" transform="translate(300 330) scale(1.7)"/>
  <use href="#oryx" transform="translate(370 338) scale(1.55)"/>
  <use href="#oryx" transform="translate(430 332) scale(1.5)"/>
  <use href="#oryx" transform="translate(490 340) scale(1.65)"/>
  <use href="#oryx" transform="translate(560 335) scale(1.45)"/>
</svg>
