<svg xmlns="http://www.w3.org/2000/svg" viewBox="0 0 800 500" preserveAspectRatio="xMidYMid slice">
  <defs>
    <linearGradient id="sky2" x1="0" y1="0" x2="0" y2="1">
      <stop offset="0" stop-color="#1c3a3f"/><stop offset="0.5" stop-color="#3f7a72"/><stop offset="0.85" stop-color="#c9d8a8"/>
    </linearGradient>
    <linearGradient id="m1" x1="0" y1="0" x2="0" y2="1"><stop offset="0" stop-color="#2f4f43"/><stop offset="1" stop-color="#1c3328"/></linearGradient>
    <linearGradient id="m2" x1="0" y1="0" x2="0" y2="1"><stop offset="0" stop-color="#436b53"/><stop offset="1" stop-color="#27452f"/></linearGradient>
  </defs>
  <rect width="800" height="500" fill="url(#sky2)"/>
  <circle cx="620" cy="130" r="42" fill="#f6efd2" opacity="0.9"/>
  <path d="M0 320 L120 190 L230 300 L340 170 L470 320 Z" fill="url(#m1)"/>
  <path d="M300 340 L450 200 L580 330 L690 210 L800 340 V500 H300 Z" fill="url(#m1)" opacity="0.85"/>
  <path d="M0 500 V360 Q 200 300 400 365 T 800 360 V500 Z" fill="url(#m2)"/>
  <g fill="#16281c">
    <path d="M120 392 q4 -18 0 -30 q10 8 8 30 q14 -4 20 4 q-16 2 -18 10 l-4 24 -6 0 z"/>
    <path d="M540 402 q4 -16 0 -26 q9 7 7 26 q12 -3 17 4 q-14 2 -15 9 l-4 20 -5 0 z"/>
    <path d="M660 385 q3 -14 0 -22 q8 6 6 22 q10 -3 15 3 q-12 2 -13 8 l-3 17 -5 0 z"/>
  </g>
  <path d="M0 470 Q 400 440 800 468 V500 H0 Z" fill="#122019"/>
</svg>
